<svg xmlns="http://www.w3.org/2000/svg" width="1200" height="800" viewBox="0 0 1200 800"><defs><linearGradient id="bg" x1="0%" y1="0%" x2="100%" y2="100%"><stop offset="0%" stop-color="#f4efe7"/><stop offset="100%" stop-color="#dce9df"/></linearGradient><filter id="shadow" x="-20%" y="-20%" width="140%" height="140%"><feDropShadow dx="0" dy="18" stdDeviation="24" flood-color="#12301f" flood-opacity="0.12"/></filter></defs><rect width="1200" height="800" fill="url(#bg)"/><rect x="28" y="28" width="1144" height="744" rx="32" fill="rgba(255,255,255,0.55)" stroke="#e6ddd1" filter="url(#shadow)"/><line x1="72" y1="116" x2="1128" y2="116" stroke="#edf2ea" stroke-width="1"/><line x1="72" y1="174" x2="1128" y2="174" stroke="#edf2ea" stroke-width="1"/><line x1="72" y1="232" x2="1128" y2="232" stroke="#edf2ea" stroke-width="1"/><line x1="72" y1="290" x2="1128" y2="290" stroke="#edf2ea" stroke-width="1"/><line x1="72" y1="348" x2="1128" y2="348" stroke="#edf2ea" stroke-width="1"/><line x1="72" y1="406" x2="1128" y2="406" stroke="#edf2ea" stroke-width="1"/><line x1="72" y1="464" x2="1128" y2="464" stroke="#edf2ea" stroke-width="1"/><line x1="72" y1="522" x2="1128" y2="522" stroke="#edf2ea" stroke-width="1"/><line x1="72" y1="580" x2="1128" y2="580" stroke="#edf2ea" stroke-width="1"/><line x1="72" y1="638" x2="1128" y2="638" stroke="#edf2ea" stroke-width="1"/><line x1="96" y1="96" x2="96" y2="704" stroke="#eef3ec" stroke-width="1"/><line x1="180" y1="96" x2="180" y2="704" stroke="#eef3ec" stroke-width="1"/><line x1="264" y1="96" x2="264" y2="704" stroke="#eef3ec" stroke-width="1"/><line x1="348" y1="96" x2="348" y2="704" stroke="#eef3ec" stroke-width="1"/><line x1="432" y1="96" x2="432" y2="704" stroke="#eef3ec" stroke-width="1"/><line x1="516" y1="96" x2="516" y2="704" stroke="#eef3ec" stroke-width="1"/><line x1="600" y1="96" x2="600" y2="704" stroke="#eef3ec" stroke-width="1"/><line x1="684" y1="96" x2="684" y2="704" stroke="#eef3ec" stroke-width="1"/><line x1="768" y1="96" x2="768" y2="704" stroke="#eef3ec" stroke-width="1"/><line x1="852" y1="96" x2="852" y2="704" stroke="#eef3ec" stroke-width="1"/><line x1="936" y1="96" x2="936" y2="704" stroke="#eef3ec" stroke-width="1"/><line x1="1020" y1="96" x2="1020" y2="704" stroke="#eef3ec" stroke-width="1"/><path d="M 588.7 372.9 L 588.9 370.0 L 587.8 367.1 L 586.7 365.3 L 568.0 337.0 L 551.1 312.4 L 549.5 310.1 L 547.2 308.0 L 544.3 306.1 L 540.8 304.5 L 518.2 298.3 L 515.6 297.0 L 514.0 295.3 L 513.3 293.5 L 513.7 291.6 L 517.5 286.6 L 519.9 283.6 L 523.8 277.8 L 526.5 272.2 L 526.9 269.7 L 526.4 267.1 L 525.1 264.7 L 523.0 262.4 L 501.1 250.8 L 481.7 240.7 L 460.5 230.0 L 446.6 223.5 L 440.0 220.8 L 434.0 217.7 L 428.6 214.3 L 424.0 210.6 L 420.4 206.1 L 417.3 201.6" fill="none" stroke="#b8c6bb" stroke-width="8" stroke-linecap="round" stroke-linejoin="round" opacity="0.55"/><path d="M 630.5 481.0 L 631.0 483.7 L 630.8 486.4 L 630.0 489.0 L 628.6 491.5 L 627.5 494.4 L 628.0 497.4 L 629.9 504.3 L 631.0 511.3 L 630.8 513.5 L 631.4 515.6 L 631.9 518.2 L 630.8 520.8 L 629.6 523.8 L 627.1 529.0 L 626.7 530.1 L 625.6 533.8 L 624.9 537.0 L 624.2 540.1 L 624.1 540.8 L 623.5 544.8 L 621.9 548.8 L 617.5 555.2 L 613.1 558.4 L 610.1 562.1 L 608.3 565.5 L 608.0 569.0 L 607.8 569.7 L 607.8 570.1 L 608.6 576.9 L 607.7 583.7 L 605.9 588.1 L 606.0 592.6 L 608.0 598.4" fill="none" stroke="#b8c6bb" stroke-width="8" stroke-linecap="round" stroke-linejoin="round" opacity="0.55"/><path d="M 938.6 423.4 L 936.2 424.0 L 908.5 430.8 L 880.2 437.0 L 850.3 443.6 L 820.2 449.9 L 819.6 450.0 L 815.1 451.0 L 800.9 453.8 L 786.2 456.1 L 771.3 457.6 L 756.1 458.5 L 719.1 460.9 L 714.4 461.3 L 686.4 463.0 L 681.6 463.3 L 671.9 464.7 L 662.9 467.0 L 657.8 469.3 L 654.0 472.1 L 649.3 479.8 L 643.9 491.9 L 641.4 502.1 L 640.7 505.7 L 640.1 516.5 L 640.3 521.1 L 640.9 527.0 L 642.1 532.9 L 642.4 534.6 L 646.1 545.8 L 647.7 549.5 L 650.2 553.0 L 653.6 556.3 L 657.7 559.4 L 659.0 560.3 L 667.3 565.0 L 675.2 568.9" fill="none" stroke="#b8c6bb" stroke-width="8" stroke-linecap="round" stroke-linejoin="round" opacity="0.55"/><path d="M 402.7 467.4 L 401.5 467.7 L 400.3 467.9 L 399.0 468.1 L 397.7 468.1 L 396.4 468.2 L 395.1 468.1 L 393.9 468.0 L 392.6 467.8" fill="none" stroke="#b8c6bb" stroke-width="8" stroke-linecap="round" stroke-linejoin="round" opacity="0.55"/><path d="M 398.3 471.7 L 399.6 470.7 L 400.7 469.6 L 401.8 468.5 L 402.7 467.4" fill="none" stroke="#b8c6bb" stroke-width="8" stroke-linecap="round" stroke-linejoin="round" opacity="0.55"/><path d="M 379.5 406.2 L 381.4 405.1 L 383.5 404.1 L 385.7 403.2 L 388.0 402.3 L 390.5 401.6 L 393.0 401.0 L 395.6 400.5 L 398.3 400.0" fill="none" stroke="#b8c6bb" stroke-width="8" stroke-linecap="round" stroke-linejoin="round" opacity="0.55"/><path d="M 392.6 467.8 L 398.3 471.7" fill="none" stroke="#b8c6bb" stroke-width="8" stroke-linecap="round" stroke-linejoin="round" opacity="0.55"/><path d="M 296.6 454.6 L 297.3 455.1 L 301.2 457.4 L 305.7 459.4 L 321.8 465.8 L 329.5 469.1 L 337.8 472.0 L 342.0 472.8 L 345.8 473.4 L 349.0 474.7 L 351.3 476.4 L 352.5 478.4 L 352.8 480.8 L 353.3 482.4 L 355.0 483.8 L 357.5 484.7 L 360.5 485.1 L 369.0 486.1 L 376.3 487.2 L 376.4 487.2 L 379.5 487.1 L 382.5 486.6 L 385.1 485.8 L 387.2 484.6 L 389.9 481.5 L 391.5 478.2 L 391.6 478.0 L 394.2 474.6 L 398.3 471.7" fill="none" stroke="#b8c6bb" stroke-width="8" stroke-linecap="round" stroke-linejoin="round" opacity="0.55"/><path d="M 379.5 406.2 L 378.1 408.0 L 377.5 409.9 L 376.8 416.0 L 375.6 426.5 L 374.9 437.0 L 374.1 440.8 L 374.0 444.7 L 374.5 448.6 L 375.6 452.4 L 376.4 454.5 L 382.5 460.2 L 389.6 465.6 L 392.6 467.8" fill="none" stroke="#b8c6bb" stroke-width="8" stroke-linecap="round" stroke-linejoin="round" opacity="0.55"/><path d="M 365.5 414.5 L 366.9 413.3 L 368.4 412.1 L 370.0 411.0 L 371.7 409.9 L 373.5 408.9 L 375.4 407.9 L 377.4 407.0 L 379.5 406.2" fill="none" stroke="#b8c6bb" stroke-width="8" stroke-linecap="round" stroke-linejoin="round" opacity="0.55"/><path d="M 365.5 414.5 L 368.5 410.3 L 371.7 406.1 L 375.1 402.0 L 378.9 398.0 L 382.7 394.5 L 386.8 391.0" fill="none" stroke="#b8c6bb" stroke-width="8" stroke-linecap="round" stroke-linejoin="round" opacity="0.55"/><path d="M 296.6 454.6 L 299.0 453.4 L 305.1 450.5 L 309.7 448.5 L 314.6 446.8 L 321.5 444.4 L 327.0 442.3 L 332.7 439.9 L 338.0 437.2 L 342.7 434.2 L 347.0 431.0 L 360.1 420.3 L 365.5 414.5" fill="none" stroke="#b8c6bb" stroke-width="8" stroke-linecap="round" stroke-linejoin="round" opacity="0.55"/><path d="M 261.4 441.3 L 263.6 440.5 L 287.0 432.7 L 287.0 432.7 L 288.8 432.2 L 290.5 431.5 L 292.0 430.7 L 293.3 429.9 L 294.9 428.8 L 295.9 427.5 L 296.0 426.2 L 295.4 424.8 L 294.1 423.5 L 293.2 422.1 L 292.6 420.4 L 292.2 418.7 L 292.1 416.9 L 292.3 415.2" fill="none" stroke="#b8c6bb" stroke-width="8" stroke-linecap="round" stroke-linejoin="round" opacity="0.55"/><path d="M 293.7 454.7 L 296.6 454.6" fill="none" stroke="#b8c6bb" stroke-width="8" stroke-linecap="round" stroke-linejoin="round" opacity="0.55"/><path d="M 592.5 467.3 L 579.9 463.1 L 568.2 459.2 L 559.5 456.7 L 559.2 456.6 L 545.9 453.5 L 532.3 450.8 L 529.2 450.4 L 526.3 449.6 L 523.8 448.5 L 521.7 447.2 L 516.8 442.2 L 516.7 442.2 L 513.9 440.1 L 511.6 437.9 L 508.5 434.5 L 503.9 431.6 L 497.3 427.9 L 494.3 424.7 L 489.5 422.1" fill="none" stroke="#2f6d49" stroke-width="12" stroke-linecap="round" stroke-linejoin="round" opacity="0.96"/><path d="M 592.5 467.3 L 579.9 463.1 L 568.2 459.2 L 559.5 456.7 L 559.2 456.6 L 545.9 453.5 L 532.3 450.8 L 529.2 450.4 L 526.3 449.6 L 523.8 448.5 L 521.7 447.2 L 516.8 442.2 L 516.7 442.2 L 513.9 440.1 L 511.6 437.9 L 508.5 434.5 L 503.9 431.6 L 497.3 427.9 L 494.3 424.7 L 489.5 422.1" fill="none" stroke="#f5fbf5" stroke-width="4" stroke-linecap="round" stroke-linejoin="round" opacity="0.18"/><path d="M 489.5 422.1 L 486.7 416.6 L 480.4 406.8 L 477.2 401.1 L 475.4 397.5" fill="none" stroke="#2f6d49" stroke-width="12" stroke-linecap="round" stroke-linejoin="round" opacity="0.96"/><path d="M 489.5 422.1 L 486.7 416.6 L 480.4 406.8 L 477.2 401.1 L 475.4 397.5" fill="none" stroke="#f5fbf5" stroke-width="4" stroke-linecap="round" stroke-linejoin="round" opacity="0.18"/><path d="M 489.5 422.1 L 483.5 421.1 L 466.3 420.0 L 449.1 419.8 L 435.8 420.1 L 422.6 419.5 L 417.1 418.4 L 412.2 416.6 L 408.4 414.2 L 405.9 411.4 L 402.6 405.9 L 398.8 400.6 L 398.3 400.0" fill="none" stroke="#2f6d49" stroke-width="12" stroke-linecap="round" stroke-linejoin="round" opacity="0.96"/><path d="M 489.5 422.1 L 483.5 421.1 L 466.3 420.0 L 449.1 419.8 L 435.8 420.1 L 422.6 419.5 L 417.1 418.4 L 412.2 416.6 L 408.4 414.2 L 405.9 411.4 L 402.6 405.9 L 398.8 400.6 L 398.3 400.0" fill="none" stroke="#f5fbf5" stroke-width="4" stroke-linecap="round" stroke-linejoin="round" opacity="0.18"/><path d="M 475.4 397.5 L 491.1 397.6 L 502.8 397.6 L 516.2 396.6 L 525.2 394.6 L 535.7 390.9 L 556.9 383.9 L 577.7 377.2 L 588.7 372.9" fill="none" stroke="#2f6d49" stroke-width="12" stroke-linecap="round" stroke-linejoin="round" opacity="0.96"/><path d="M 475.4 397.5 L 491.1 397.6 L 502.8 397.6 L 516.2 396.6 L 525.2 394.6 L 535.7 390.9 L 556.9 383.9 L 577.7 377.2 L 588.7 372.9" fill="none" stroke="#f5fbf5" stroke-width="4" stroke-linecap="round" stroke-linejoin="round" opacity="0.18"/><path d="M 402.7 467.4 L 403.1 467.2 L 405.8 465.0 L 409.4 463.3 L 413.7 462.1 L 418.4 461.6 L 422.6 462.1 L 426.3 463.2 L 429.3 464.8 L 431.4 466.7 L 437.0 471.2 L 438.1 472.1 L 439.8 472.7 L 441.8 472.8 L 443.7 472.5 L 446.0 472.7 L 448.1 473.4 L 451.4 475.0 L 456.0 477.1 L 461.3 478.6 L 464.6 479.7 L 467.3 481.1 L 472.7 483.5 L 478.9 485.3 L 485.1 486.2 L 491.5 486.3 L 496.9 486.0 L 502.3 486.4 L 508.7 486.2 L 514.7 484.8 L 524.3 481.1 L 535.0 478.3 L 538.6 477.6 L 542.5 476.8 L 546.6 476.9 L 551.6 477.3 L 556.6 477.0 L 561.6 477.1 L 566.6 477.7 L 570.2 478.1 L 573.9 478.1 L 579.1 477.7 L 584.3 478.0" fill="none" stroke="#2f6d49" stroke-width="12" stroke-linecap="round" stroke-linejoin="round" opacity="0.96"/><path d="M 402.7 467.4 L 403.1 467.2 L 405.8 465.0 L 409.4 463.3 L 413.7 462.1 L 418.4 461.6 L 422.6 462.1 L 426.3 463.2 L 429.3 464.8 L 431.4 466.7 L 437.0 471.2 L 438.1 472.1 L 439.8 472.7 L 441.8 472.8 L 443.7 472.5 L 446.0 472.7 L 448.1 473.4 L 451.4 475.0 L 456.0 477.1 L 461.3 478.6 L 464.6 479.7 L 467.3 481.1 L 472.7 483.5 L 478.9 485.3 L 485.1 486.2 L 491.5 486.3 L 496.9 486.0 L 502.3 486.4 L 508.7 486.2 L 514.7 484.8 L 524.3 481.1 L 535.0 478.3 L 538.6 477.6 L 542.5 476.8 L 546.6 476.9 L 551.6 477.3 L 556.6 477.0 L 561.6 477.1 L 566.6 477.7 L 570.2 478.1 L 573.9 478.1 L 579.1 477.7 L 584.3 478.0" fill="none" stroke="#f5fbf5" stroke-width="4" stroke-linecap="round" stroke-linejoin="round" opacity="0.18"/><path d="M 584.3 478.0 L 588.3 473.2 L 592.5 467.3" fill="none" stroke="#2f6d49" stroke-width="12" stroke-linecap="round" stroke-linejoin="round" opacity="0.96"/><path d="M 584.3 478.0 L 588.3 473.2 L 592.5 467.3" fill="none" stroke="#f5fbf5" stroke-width="4" stroke-linecap="round" stroke-linejoin="round" opacity="0.18"/><path d="M 630.5 481.0 L 629.1 480.2 L 627.6 479.3 L 625.9 478.6 L 624.1 478.0 L 619.6 476.9 L 615.4 475.5 L 613.3 474.7 L 611.0 474.1 L 606.7 472.9 L 602.6 471.4 L 597.7 469.3 L 592.5 467.3" fill="none" stroke="#2f6d49" stroke-width="12" stroke-linecap="round" stroke-linejoin="round" opacity="0.96"/><path d="M 630.5 481.0 L 629.1 480.2 L 627.6 479.3 L 625.9 478.6 L 624.1 478.0 L 619.6 476.9 L 615.4 475.5 L 613.3 474.7 L 611.0 474.1 L 606.7 472.9 L 602.6 471.4 L 597.7 469.3 L 592.5 467.3" fill="none" stroke="#f5fbf5" stroke-width="4" stroke-linecap="round" stroke-linejoin="round" opacity="0.18"/><path d="M 398.3 400.0 L 407.5 399.2 L 416.8 398.6 L 436.6 397.9 L 456.5 397.4 L 457.1 397.4 L 475.4 397.5" fill="none" stroke="#2f6d49" stroke-width="12" stroke-linecap="round" stroke-linejoin="round" opacity="0.96"/><path d="M 398.3 400.0 L 407.5 399.2 L 416.8 398.6 L 436.6 397.9 L 456.5 397.4 L 457.1 397.4 L 475.4 397.5" fill="none" stroke="#f5fbf5" stroke-width="4" stroke-linecap="round" stroke-linejoin="round" opacity="0.18"/><path d="M 584.3 478.0 L 588.5 477.6 L 592.8 477.3 L 597.1 477.1 L 601.4 477.2 L 605.4 477.5 L 609.3 478.0 L 613.1 478.8 L 616.6 479.9 L 618.0 480.2 L 619.5 480.3 L 621.0 480.4 L 622.5 480.3 L 626.5 480.5 L 630.5 481.0" fill="none" stroke="#2f6d49" stroke-width="12" stroke-linecap="round" stroke-linejoin="round" opacity="0.96"/><path d="M 584.3 478.0 L 588.5 477.6 L 592.8 477.3 L 597.1 477.1 L 601.4 477.2 L 605.4 477.5 L 609.3 478.0 L 613.1 478.8 L 616.6 479.9 L 618.0 480.2 L 619.5 480.3 L 621.0 480.4 L 622.5 480.3 L 626.5 480.5 L 630.5 481.0" fill="none" stroke="#f5fbf5" stroke-width="4" stroke-linecap="round" stroke-linejoin="round" opacity="0.18"/><path d="M 666.0 466.1 L 662.1 465.1 L 658.8 463.6 L 656.1 461.9 L 654.2 459.8 L 653.2 457.6 L 652.7 455.3 L 652.9 452.9 L 653.7 450.7 L 654.6 447.5 L 654.6 444.3 L 654.6 442.1 L 653.8 439.9 L 652.2 437.8 L 650.0 435.9 L 639.9 429.0 L 632.0 419.6 L 615.9 400.7 L 600.1 383.5 L 596.1 378.5 L 591.0 373.9 L 588.7 372.9" fill="none" stroke="#2f6d49" stroke-width="12" stroke-linecap="round" stroke-linejoin="round" opacity="0.96"/><path d="M 666.0 466.1 L 662.1 465.1 L 658.8 463.6 L 656.1 461.9 L 654.2 459.8 L 653.2 457.6 L 652.7 455.3 L 652.9 452.9 L 653.7 450.7 L 654.6 447.5 L 654.6 444.3 L 654.6 442.1 L 653.8 439.9 L 652.2 437.8 L 650.0 435.9 L 639.9 429.0 L 632.0 419.6 L 615.9 400.7 L 600.1 383.5 L 596.1 378.5 L 591.0 373.9 L 588.7 372.9" fill="none" stroke="#f5fbf5" stroke-width="4" stroke-linecap="round" stroke-linejoin="round" opacity="0.18"/><circle cx="534.3" cy="433.2" r="18" fill="#f4ca3d" stroke="#ffffff" stroke-width="8"/><circle cx="534.3" cy="433.2" r="34" fill="none" stroke="#f4ca3d" stroke-width="4" opacity="0.45"/><rect x="566.255354929183" y="417.17608292423034" width="250" height="78" rx="18" fill="#ffffff" stroke="#e7ddd0" filter="url(#shadow)"/><text x="586.255354929183" y="449.17608292423034" font-family="Syne, Arial, sans-serif" font-size="24" font-weight="700" fill="#173423">DeLaney Farm</text><text x="586.255354929183" y="473.17608292423034" font-family="DM Sans, Arial, sans-serif" font-size="16" fill="#5f6d64">Nearby trail access preview</text><text x="84" y="92" font-family="Syne, Arial, sans-serif" font-size="18" font-weight="700" fill="#2f6d49">Trail access preview</text><text x="84" y="116" font-family="DM Sans, Arial, sans-serif" font-size="14" fill="#75847b">Generated from local trail geometry with the park marked in yellow.</text></svg>