<svg xmlns="http://www.w3.org/2000/svg" width="1200" height="800" viewBox="0 0 1200 800"><defs><linearGradient id="bg" x1="0%" y1="0%" x2="100%" y2="100%"><stop offset="0%" stop-color="#f4efe7"/><stop offset="100%" stop-color="#dce9df"/></linearGradient><filter id="shadow" x="-20%" y="-20%" width="140%" height="140%"><feDropShadow dx="0" dy="18" stdDeviation="24" flood-color="#12301f" flood-opacity="0.12"/></filter></defs><rect width="1200" height="800" fill="url(#bg)"/><rect x="28" y="28" width="1144" height="744" rx="32" fill="rgba(255,255,255,0.55)" stroke="#e6ddd1" filter="url(#shadow)"/><line x1="72" y1="116" x2="1128" y2="116" stroke="#edf2ea" stroke-width="1"/><line x1="72" y1="174" x2="1128" y2="174" stroke="#edf2ea" stroke-width="1"/><line x1="72" y1="232" x2="1128" y2="232" stroke="#edf2ea" stroke-width="1"/><line x1="72" y1="290" x2="1128" y2="290" stroke="#edf2ea" stroke-width="1"/><line x1="72" y1="348" x2="1128" y2="348" stroke="#edf2ea" stroke-width="1"/><line x1="72" y1="406" x2="1128" y2="406" stroke="#edf2ea" stroke-width="1"/><line x1="72" y1="464" x2="1128" y2="464" stroke="#edf2ea" stroke-width="1"/><line x1="72" y1="522" x2="1128" y2="522" stroke="#edf2ea" stroke-width="1"/><line x1="72" y1="580" x2="1128" y2="580" stroke="#edf2ea" stroke-width="1"/><line x1="72" y1="638" x2="1128" y2="638" stroke="#edf2ea" stroke-width="1"/><line x1="96" y1="96" x2="96" y2="704" stroke="#eef3ec" stroke-width="1"/><line x1="180" y1="96" x2="180" y2="704" stroke="#eef3ec" stroke-width="1"/><line x1="264" y1="96" x2="264" y2="704" stroke="#eef3ec" stroke-width="1"/><line x1="348" y1="96" x2="348" y2="704" stroke="#eef3ec" stroke-width="1"/><line x1="432" y1="96" x2="432" y2="704" stroke="#eef3ec" stroke-width="1"/><line x1="516" y1="96" x2="516" y2="704" stroke="#eef3ec" stroke-width="1"/><line x1="600" y1="96" x2="600" y2="704" stroke="#eef3ec" stroke-width="1"/><line x1="684" y1="96" x2="684" y2="704" stroke="#eef3ec" stroke-width="1"/><line x1="768" y1="96" x2="768" y2="704" stroke="#eef3ec" stroke-width="1"/><line x1="852" y1="96" x2="852" y2="704" stroke="#eef3ec" stroke-width="1"/><line x1="936" y1="96" x2="936" y2="704" stroke="#eef3ec" stroke-width="1"/><line x1="1020" y1="96" x2="1020" y2="704" stroke="#eef3ec" stroke-width="1"/><path d="M 771.6 370.8 L 768.4 370.2 L 763.6 369.9 L 756.6 369.4 L 750.6 368.6 L 744.3 367.5 L 738.5 366.2 L 734.1 364.7 L 730.2 362.6 L 726.2 360.2 L 722.4 358.2" fill="none" stroke="#b8c6bb" stroke-width="8" stroke-linecap="round" stroke-linejoin="round" opacity="0.55"/><path d="M 722.4 358.2 L 725.9 356.4 L 731.0 353.9 L 736.0 352.2" fill="none" stroke="#b8c6bb" stroke-width="8" stroke-linecap="round" stroke-linejoin="round" opacity="0.55"/><path d="M 761.2 459.7 L 762.7 458.2 L 764.1 456.7 L 765.4 455.0 L 766.6 453.3 L 767.3 450.3 L 767.4 447.3 L 766.9 444.2 L 765.8 441.3 L 763.7 438.1 L 761.3 435.5 L 759.9 433.5 L 759.4 431.4 L 759.5 428.5 L 760.4 425.8 L 762.3 423.1 L 764.9 420.6 L 768.4 418.6 L 772.1 416.3 L 774.8 414.2 L 776.1 412.7 L 777.0 410.4" fill="none" stroke="#b8c6bb" stroke-width="8" stroke-linecap="round" stroke-linejoin="round" opacity="0.55"/><path d="M 766.0 375.2 L 771.6 370.8" fill="none" stroke="#b8c6bb" stroke-width="8" stroke-linecap="round" stroke-linejoin="round" opacity="0.55"/><path d="M 776.9 408.7 L 775.4 403.5 L 775.9 402.6 L 776.8 401.7 L 782.8 399.8 L 787.8 397.4 L 791.7 394.5 L 794.3 391.2 L 795.4 388.2 L 795.5 385.2 L 794.5 382.2 L 792.4 379.4 L 790.9 377.8 L 789.0 376.3 L 786.8 375.0 L 784.2 373.8 L 781.4 372.8 L 778.3 371.9 L 775.0 371.3 L 771.6 370.8" fill="none" stroke="#b8c6bb" stroke-width="8" stroke-linecap="round" stroke-linejoin="round" opacity="0.55"/><path d="M 777.0 410.4 L 776.9 408.7" fill="none" stroke="#b8c6bb" stroke-width="8" stroke-linecap="round" stroke-linejoin="round" opacity="0.55"/><path d="M 635.3 499.3 L 641.2 498.4 L 646.9 497.2 L 652.2 495.6 L 656.9 493.6 L 675.1 485.5 L 679.2 483.4 L 684.0 481.5 L 689.4 480.0 L 695.0 478.9 L 705.2 477.3 L 714.2 476.7 L 725.4 475.4 L 732.1 473.9 L 738.6 472.1 L 744.6 470.0 L 750.3 467.7 L 758.4 462.3" fill="none" stroke="#b8c6bb" stroke-width="8" stroke-linecap="round" stroke-linejoin="round" opacity="0.55"/><path d="M 498.7 402.6 L 501.9 401.4 L 507.3 399.3 L 513.3 396.2 L 517.9 392.9 L 521.5 389.0 L 523.6 386.1 L 526.4 382.7 L 529.8 379.6 L 532.8 377.3 L 535.3 375.8" fill="none" stroke="#b8c6bb" stroke-width="8" stroke-linecap="round" stroke-linejoin="round" opacity="0.55"/><path d="M 771.6 370.8 L 773.3 363.9 L 774.5 360.1 L 776.5 355.5 L 778.5 352.0 L 781.1 348.7 L 789.3 341.8" fill="none" stroke="#b8c6bb" stroke-width="8" stroke-linecap="round" stroke-linejoin="round" opacity="0.55"/><path d="M 758.4 462.3 L 761.2 459.7" fill="none" stroke="#b8c6bb" stroke-width="8" stroke-linecap="round" stroke-linejoin="round" opacity="0.55"/><path d="M 506.1 411.1 L 505.4 417.1 L 513.0 417.3 L 512.2 423.0" fill="none" stroke="#b8c6bb" stroke-width="8" stroke-linecap="round" stroke-linejoin="round" opacity="0.55"/><path d="M 498.7 402.6 L 502.0 405.6 L 503.9 407.2 L 505.3 408.8 L 506.1 411.1" fill="none" stroke="#b8c6bb" stroke-width="8" stroke-linecap="round" stroke-linejoin="round" opacity="0.55"/><path d="M 635.3 499.3 L 639.5 504.0 L 640.9 505.6 L 642.9 507.7 L 644.4 509.7 L 645.3 511.6 L 646.2 514.1 L 646.5 517.0 L 646.0 519.7" fill="none" stroke="#b8c6bb" stroke-width="8" stroke-linecap="round" stroke-linejoin="round" opacity="0.55"/><path d="M 404.5 405.4 L 423.5 406.0 L 444.9 406.4 L 454.0 406.8 L 472.7 406.9 L 479.8 406.5 L 486.1 405.4 L 491.0 404.4 L 498.7 402.6" fill="none" stroke="#b8c6bb" stroke-width="8" stroke-linecap="round" stroke-linejoin="round" opacity="0.55"/><path d="M 595.3 363.9 L 598.5 365.2 L 602.4 366.4 L 610.0 368.6 L 622.1 371.2 L 633.9 374.7 L 645.0 379.1 L 656.3 384.3 L 665.3 390.5 L 667.7 394.4 L 668.7 398.4 L 668.1 402.4 L 666.0 406.4 L 661.4 410.2 L 655.3 413.5 L 647.8 416.0 L 639.4 417.7 L 629.1 418.6 L 618.7 418.8 L 608.3 418.4 L 598.0 417.3 L 584.2 415.4 L 571.4 412.2 L 565.8 410.7 L 560.8 408.7 L 556.8 406.3 L 553.7 403.5 L 552.1 398.3 L 553.0 393.1 L 554.6 391.2 L 556.7 389.8 L 558.1 388.6 L 559.0 387.8 L 559.0 385.7 L 557.9 383.7 L 555.7 381.9 L 552.5 380.5 L 546.6 378.9 L 539.3 377.5 L 535.3 375.8" fill="none" stroke="#2f6d49" stroke-width="12" stroke-linecap="round" stroke-linejoin="round" opacity="0.96"/><path d="M 595.3 363.9 L 598.5 365.2 L 602.4 366.4 L 610.0 368.6 L 622.1 371.2 L 633.9 374.7 L 645.0 379.1 L 656.3 384.3 L 665.3 390.5 L 667.7 394.4 L 668.7 398.4 L 668.1 402.4 L 666.0 406.4 L 661.4 410.2 L 655.3 413.5 L 647.8 416.0 L 639.4 417.7 L 629.1 418.6 L 618.7 418.8 L 608.3 418.4 L 598.0 417.3 L 584.2 415.4 L 571.4 412.2 L 565.8 410.7 L 560.8 408.7 L 556.8 406.3 L 553.7 403.5 L 552.1 398.3 L 553.0 393.1 L 554.6 391.2 L 556.7 389.8 L 558.1 388.6 L 559.0 387.8 L 559.0 385.7 L 557.9 383.7 L 555.7 381.9 L 552.5 380.5 L 546.6 378.9 L 539.3 377.5 L 535.3 375.8" fill="none" stroke="#f5fbf5" stroke-width="4" stroke-linecap="round" stroke-linejoin="round" opacity="0.18"/><path d="M 716.4 357.5 L 708.5 358.7 L 701.5 359.7 L 694.3 360.1 L 687.1 359.9 L 680.0 359.0 L 673.3 357.4 L 666.8 355.5 L 660.8 353.3 L 655.3 350.9 L 650.2 349.6 L 644.7 348.8 L 639.0 348.4 L 633.3 348.6 L 617.9 350.3 L 617.8 350.3" fill="none" stroke="#2f6d49" stroke-width="12" stroke-linecap="round" stroke-linejoin="round" opacity="0.96"/><path d="M 716.4 357.5 L 708.5 358.7 L 701.5 359.7 L 694.3 360.1 L 687.1 359.9 L 680.0 359.0 L 673.3 357.4 L 666.8 355.5 L 660.8 353.3 L 655.3 350.9 L 650.2 349.6 L 644.7 348.8 L 639.0 348.4 L 633.3 348.6 L 617.9 350.3 L 617.8 350.3" fill="none" stroke="#f5fbf5" stroke-width="4" stroke-linecap="round" stroke-linejoin="round" opacity="0.18"/><path d="M 595.3 363.9 L 601.6 362.1 L 604.6 360.6 L 607.0 358.8" fill="none" stroke="#2f6d49" stroke-width="12" stroke-linecap="round" stroke-linejoin="round" opacity="0.96"/><path d="M 595.3 363.9 L 601.6 362.1 L 604.6 360.6 L 607.0 358.8" fill="none" stroke="#f5fbf5" stroke-width="4" stroke-linecap="round" stroke-linejoin="round" opacity="0.18"/><path d="M 607.0 358.8 L 617.9 350.3" fill="none" stroke="#2f6d49" stroke-width="12" stroke-linecap="round" stroke-linejoin="round" opacity="0.96"/><path d="M 607.0 358.8 L 617.9 350.3" fill="none" stroke="#f5fbf5" stroke-width="4" stroke-linecap="round" stroke-linejoin="round" opacity="0.18"/><path d="M 535.3 375.8 L 541.7 372.8 L 548.0 370.5 L 554.9 369.0 L 563.4 367.5 L 573.0 366.6 L 580.1 366.2 L 586.4 365.5 L 591.2 364.8 L 595.3 363.9" fill="none" stroke="#2f6d49" stroke-width="12" stroke-linecap="round" stroke-linejoin="round" opacity="0.96"/><path d="M 535.3 375.8 L 541.7 372.8 L 548.0 370.5 L 554.9 369.0 L 563.4 367.5 L 573.0 366.6 L 580.1 366.2 L 586.4 365.5 L 591.2 364.8 L 595.3 363.9" fill="none" stroke="#f5fbf5" stroke-width="4" stroke-linecap="round" stroke-linejoin="round" opacity="0.18"/><path d="M 716.4 357.5 L 703.7 355.5" fill="none" stroke="#2f6d49" stroke-width="12" stroke-linecap="round" stroke-linejoin="round" opacity="0.96"/><path d="M 716.4 357.5 L 703.7 355.5" fill="none" stroke="#f5fbf5" stroke-width="4" stroke-linecap="round" stroke-linejoin="round" opacity="0.18"/><path d="M 617.9 350.3 L 617.9 350.3" fill="none" stroke="#2f6d49" stroke-width="12" stroke-linecap="round" stroke-linejoin="round" opacity="0.96"/><path d="M 617.9 350.3 L 617.9 350.3" fill="none" stroke="#f5fbf5" stroke-width="4" stroke-linecap="round" stroke-linejoin="round" opacity="0.18"/><path d="M 617.9 350.3 L 629.2 340.9 L 633.0 337.2 L 635.8 333.2 L 637.5 329.2 L 638.3 325.1 L 638.8 321.5 L 638.9 317.7 L 639.0 314.8 L 639.7 312.0 L 640.4 309.6 L 642.5 305.7 L 644.9 301.6 L 647.2 297.5 L 649.3 295.1 L 649.8 292.9 L 648.0 286.5 L 644.0 280.3" fill="none" stroke="#2f6d49" stroke-width="12" stroke-linecap="round" stroke-linejoin="round" opacity="0.96"/><path d="M 617.9 350.3 L 629.2 340.9 L 633.0 337.2 L 635.8 333.2 L 637.5 329.2 L 638.3 325.1 L 638.8 321.5 L 638.9 317.7 L 639.0 314.8 L 639.7 312.0 L 640.4 309.6 L 642.5 305.7 L 644.9 301.6 L 647.2 297.5 L 649.3 295.1 L 649.8 292.9 L 648.0 286.5 L 644.0 280.3" fill="none" stroke="#f5fbf5" stroke-width="4" stroke-linecap="round" stroke-linejoin="round" opacity="0.18"/><path d="M 722.4 358.2 L 719.9 357.6 L 716.4 357.5" fill="none" stroke="#2f6d49" stroke-width="12" stroke-linecap="round" stroke-linejoin="round" opacity="0.96"/><path d="M 722.4 358.2 L 719.9 357.6 L 716.4 357.5" fill="none" stroke="#f5fbf5" stroke-width="4" stroke-linecap="round" stroke-linejoin="round" opacity="0.18"/><path d="M 512.2 423.0 L 512.1 424.0 L 512.8 425.9 L 514.3 427.1 L 516.2 428.3 L 517.8 429.2 L 519.9 430.0 L 522.1 430.7 L 525.5 431.2 L 531.1 431.8 L 536.6 432.1 L 540.9 432.7 L 546.0 433.4 L 551.8 434.7 L 561.5 436.8 L 570.5 439.6 L 578.6 443.0 L 585.6 447.0 L 594.1 452.5 L 600.5 458.6 L 604.8 465.2 L 606.6 472.1 L 606.0 478.8 L 603.4 485.4 L 603.2 489.6 L 605.7 493.7 L 608.1 495.6 L 611.3 497.2 L 615.2 498.5 L 619.4 499.3 L 626.8 499.6 L 631.9 499.5 L 635.3 499.3" fill="none" stroke="#2f6d49" stroke-width="12" stroke-linecap="round" stroke-linejoin="round" opacity="0.96"/><path d="M 512.2 423.0 L 512.1 424.0 L 512.8 425.9 L 514.3 427.1 L 516.2 428.3 L 517.8 429.2 L 519.9 430.0 L 522.1 430.7 L 525.5 431.2 L 531.1 431.8 L 536.6 432.1 L 540.9 432.7 L 546.0 433.4 L 551.8 434.7 L 561.5 436.8 L 570.5 439.6 L 578.6 443.0 L 585.6 447.0 L 594.1 452.5 L 600.5 458.6 L 604.8 465.2 L 606.6 472.1 L 606.0 478.8 L 603.4 485.4 L 603.2 489.6 L 605.7 493.7 L 608.1 495.6 L 611.3 497.2 L 615.2 498.5 L 619.4 499.3 L 626.8 499.6 L 631.9 499.5 L 635.3 499.3" fill="none" stroke="#f5fbf5" stroke-width="4" stroke-linecap="round" stroke-linejoin="round" opacity="0.18"/><circle cx="654.8" cy="403.4" r="18" fill="#f4ca3d" stroke="#ffffff" stroke-width="8"/><circle cx="654.8" cy="403.4" r="34" fill="none" stroke="#f4ca3d" stroke-width="4" opacity="0.45"/><rect x="686.8374040689661" y="387.3715324960029" width="250" height="78" rx="18" fill="#ffffff" stroke="#e7ddd0" filter="url(#shadow)"/><text x="706.8374040689661" y="419.3715324960029" font-family="Syne, Arial, sans-serif" font-size="24" font-weight="700" fill="#173423">Utah Park</text><text x="706.8374040689661" y="443.3715324960029" font-family="DM Sans, Arial, sans-serif" font-size="16" fill="#5f6d64">Trail access preview</text><text x="84" y="92" font-family="Syne, Arial, sans-serif" font-size="18" font-weight="700" fill="#2f6d49">Trail access preview</text><text x="84" y="116" font-family="DM Sans, Arial, sans-serif" font-size="14" fill="#75847b">Generated from local trail geometry with the park marked in yellow.</text></svg>