<svg xmlns="http://www.w3.org/2000/svg" width="1200" height="800" viewBox="0 0 1200 800"><defs><linearGradient id="bg" x1="0%" y1="0%" x2="100%" y2="100%"><stop offset="0%" stop-color="#f4efe7"/><stop offset="100%" stop-color="#e8f0e9"/></linearGradient><linearGradient id="panel" x1="0%" y1="0%" x2="100%" y2="100%"><stop offset="0%" stop-color="#ffffff"/><stop offset="100%" stop-color="#f7f4ef"/></linearGradient><filter id="shadow" x="-20%" y="-20%" width="140%" height="140%"><feDropShadow dx="0" dy="18" stdDeviation="24" flood-color="#12301f" flood-opacity="0.12"/></filter></defs><rect width="1200" height="800" fill="url(#bg)"/><rect x="28" y="28" width="1144" height="744" rx="34" fill="url(#panel)" stroke="#e6ddd1" filter="url(#shadow)"/><rect x="70" y="86" width="470" height="628" rx="28" fill="#f4efe7"/><rect x="610" y="86" width="500" height="628" rx="28" fill="#eef3ec" stroke="#dfe7df"/><line x1="628" y1="120" x2="1092" y2="120" stroke="#e3ece4" stroke-width="1"/><line x1="628" y1="178" x2="1092" y2="178" stroke="#e3ece4" stroke-width="1"/><line x1="628" y1="236" x2="1092" y2="236" stroke="#e3ece4" stroke-width="1"/><line x1="628" y1="294" x2="1092" y2="294" stroke="#e3ece4" stroke-width="1"/><line x1="628" y1="352" x2="1092" y2="352" stroke="#e3ece4" stroke-width="1"/><line x1="628" y1="410" x2="1092" y2="410" stroke="#e3ece4" stroke-width="1"/><line x1="628" y1="468" x2="1092" y2="468" stroke="#e3ece4" stroke-width="1"/><line x1="628" y1="526" x2="1092" y2="526" stroke="#e3ece4" stroke-width="1"/><line x1="628" y1="584" x2="1092" y2="584" stroke="#e3ece4" stroke-width="1"/><line x1="628" y1="642" x2="1092" y2="642" stroke="#e3ece4" stroke-width="1"/><line x1="642" y1="104" x2="642" y2="696" stroke="#e3ece4" stroke-width="1"/><line x1="706" y1="104" x2="706" y2="696" stroke="#e3ece4" stroke-width="1"/><line x1="770" y1="104" x2="770" y2="696" stroke="#e3ece4" stroke-width="1"/><line x1="834" y1="104" x2="834" y2="696" stroke="#e3ece4" stroke-width="1"/><line x1="898" y1="104" x2="898" y2="696" stroke="#e3ece4" stroke-width="1"/><line x1="962" y1="104" x2="962" y2="696" stroke="#e3ece4" stroke-width="1"/><line x1="1026" y1="104" x2="1026" y2="696" stroke="#e3ece4" stroke-width="1"/><path d="M 923.0 377.1 L 921.9 376.6 L 920.1 376.3 L 917.5 375.9 L 915.3 375.3 L 913.0 374.4 L 910.9 373.4 L 909.3 372.2 L 907.8 370.6 L 906.4 368.7 L 905.0 367.1" fill="none" stroke="#b8c6bb" stroke-width="8" stroke-linecap="round" stroke-linejoin="round" opacity="0.55"/><path d="M 905.0 367.1 L 906.2 365.7 L 908.1 363.8 L 910.0 362.4" fill="none" stroke="#b8c6bb" stroke-width="8" stroke-linecap="round" stroke-linejoin="round" opacity="0.55"/><path d="M 919.2 446.9 L 919.8 445.8 L 920.3 444.6 L 920.8 443.3 L 921.2 441.9 L 921.5 439.5 L 921.5 437.2 L 921.3 434.8 L 920.9 432.5 L 920.2 429.9 L 919.3 427.9 L 918.8 426.3 L 918.6 424.7 L 918.6 422.5 L 919.0 420.3 L 919.6 418.2 L 920.6 416.2 L 921.9 414.6 L 923.3 412.8 L 924.2 411.2 L 924.7 410.0 L 925.0 408.2" fill="none" stroke="#b8c6bb" stroke-width="8" stroke-linecap="round" stroke-linejoin="round" opacity="0.55"/><path d="M 921.0 380.5 L 923.0 377.1" fill="none" stroke="#b8c6bb" stroke-width="8" stroke-linecap="round" stroke-linejoin="round" opacity="0.55"/><path d="M 925.0 406.8 L 924.5 402.7 L 924.6 402.0 L 924.9 401.4 L 927.2 399.9 L 929.0 397.9 L 930.4 395.6 L 931.4 393.1 L 931.8 390.8 L 931.8 388.4 L 931.5 386.0 L 930.7 383.8 L 930.1 382.5 L 929.5 381.4 L 928.6 380.3 L 927.7 379.4 L 926.6 378.6 L 925.5 377.9 L 924.3 377.4 L 923.0 377.1" fill="none" stroke="#b8c6bb" stroke-width="8" stroke-linecap="round" stroke-linejoin="round" opacity="0.55"/><path d="M 925.0 408.2 L 925.0 406.8" fill="none" stroke="#b8c6bb" stroke-width="8" stroke-linecap="round" stroke-linejoin="round" opacity="0.55"/><path d="M 873.0 478.1 L 875.2 477.4 L 877.2 476.4 L 879.2 475.2 L 880.9 473.6 L 887.6 467.3 L 889.1 465.6 L 890.9 464.1 L 892.8 462.9 L 894.9 462.1 L 898.6 460.8 L 902.0 460.3 L 906.1 459.3 L 908.5 458.1 L 910.9 456.7 L 913.1 455.1 L 915.2 453.2 L 918.2 449.0" fill="none" stroke="#b8c6bb" stroke-width="8" stroke-linecap="round" stroke-linejoin="round" opacity="0.55"/><path d="M 822.8 402.1 L 824.0 401.1 L 825.9 399.5 L 828.1 397.0 L 829.8 394.4 L 831.2 391.4 L 831.9 389.0 L 833.0 386.4 L 834.2 384.0 L 835.3 382.2 L 836.2 381.0" fill="none" stroke="#b8c6bb" stroke-width="8" stroke-linecap="round" stroke-linejoin="round" opacity="0.55"/><path d="M 923.0 377.1 L 923.7 371.6 L 924.1 368.6 L 924.8 365.0 L 925.6 362.2 L 926.5 359.6 L 929.6 354.2" fill="none" stroke="#b8c6bb" stroke-width="8" stroke-linecap="round" stroke-linejoin="round" opacity="0.55"/><path d="M 918.2 449.0 L 919.2 446.9" fill="none" stroke="#b8c6bb" stroke-width="8" stroke-linecap="round" stroke-linejoin="round" opacity="0.55"/><path d="M 825.5 408.7 L 825.2 413.5 L 828.0 413.6 L 827.7 418.1" fill="none" stroke="#b8c6bb" stroke-width="8" stroke-linecap="round" stroke-linejoin="round" opacity="0.55"/><path d="M 822.8 402.1 L 824.0 404.4 L 824.7 405.6 L 825.2 406.9 L 825.5 408.7" fill="none" stroke="#b8c6bb" stroke-width="8" stroke-linecap="round" stroke-linejoin="round" opacity="0.55"/><path d="M 873.0 478.1 L 874.5 481.8 L 875.0 483.1 L 875.7 484.7 L 876.3 486.3 L 876.7 487.8 L 877.0 489.8 L 877.1 492.0 L 876.9 494.1" fill="none" stroke="#b8c6bb" stroke-width="8" stroke-linecap="round" stroke-linejoin="round" opacity="0.55"/><path d="M 788.2 404.2 L 795.1 404.7 L 803.0 405.1 L 806.4 405.3 L 813.2 405.4 L 815.8 405.1 L 818.2 404.3 L 819.9 403.4 L 822.8 402.1" fill="none" stroke="#b8c6bb" stroke-width="8" stroke-linecap="round" stroke-linejoin="round" opacity="0.55"/><path d="M 858.3 371.6 L 859.5 372.6 L 860.9 373.6 L 863.7 375.3 L 868.1 377.4 L 872.4 380.1 L 876.5 383.6 L 880.7 387.7 L 884.0 392.5 L 884.9 395.6 L 885.2 398.7 L 885.0 401.9 L 884.2 405.0 L 882.6 408.0 L 880.3 410.6 L 877.6 412.6 L 874.5 413.9 L 870.7 414.6 L 866.9 414.8 L 863.0 414.4 L 859.3 413.6 L 854.2 412.1 L 849.5 409.6 L 847.4 408.4 L 845.6 406.8 L 844.1 404.9 L 843.0 402.8 L 842.4 398.7 L 842.7 394.5 L 843.3 393.1 L 844.1 392.0 L 844.6 391.1 L 844.9 390.4 L 844.9 388.7 L 844.5 387.2 L 843.7 385.8 L 842.6 384.7 L 840.4 383.4 L 837.7 382.3 L 836.2 381.0" fill="none" stroke="#2f6d49" stroke-width="12" stroke-linecap="round" stroke-linejoin="round" opacity="0.96"/><path d="M 858.3 371.6 L 859.5 372.6 L 860.9 373.6 L 863.7 375.3 L 868.1 377.4 L 872.4 380.1 L 876.5 383.6 L 880.7 387.7 L 884.0 392.5 L 884.9 395.6 L 885.2 398.7 L 885.0 401.9 L 884.2 405.0 L 882.6 408.0 L 880.3 410.6 L 877.6 412.6 L 874.5 413.9 L 870.7 414.6 L 866.9 414.8 L 863.0 414.4 L 859.3 413.6 L 854.2 412.1 L 849.5 409.6 L 847.4 408.4 L 845.6 406.8 L 844.1 404.9 L 843.0 402.8 L 842.4 398.7 L 842.7 394.5 L 843.3 393.1 L 844.1 392.0 L 844.6 391.1 L 844.9 390.4 L 844.9 388.7 L 844.5 387.2 L 843.7 385.8 L 842.6 384.7 L 840.4 383.4 L 837.7 382.3 L 836.2 381.0" fill="none" stroke="#f5fbf5" stroke-width="4" stroke-linecap="round" stroke-linejoin="round" opacity="0.18"/><path d="M 902.8 366.6 L 899.9 367.6 L 897.3 368.3 L 894.6 368.6 L 892.0 368.4 L 889.4 367.8 L 886.9 366.5 L 884.6 365.0 L 882.3 363.3 L 880.3 361.4 L 878.4 360.3 L 876.4 359.7 L 874.3 359.4 L 872.2 359.6 L 866.6 360.9 L 866.5 360.9" fill="none" stroke="#2f6d49" stroke-width="12" stroke-linecap="round" stroke-linejoin="round" opacity="0.96"/><path d="M 902.8 366.6 L 899.9 367.6 L 897.3 368.3 L 894.6 368.6 L 892.0 368.4 L 889.4 367.8 L 886.9 366.5 L 884.6 365.0 L 882.3 363.3 L 880.3 361.4 L 878.4 360.3 L 876.4 359.7 L 874.3 359.4 L 872.2 359.6 L 866.6 360.9 L 866.5 360.9" fill="none" stroke="#f5fbf5" stroke-width="4" stroke-linecap="round" stroke-linejoin="round" opacity="0.18"/><path d="M 858.3 371.6 L 860.6 370.2 L 861.7 369.0 L 862.6 367.6" fill="none" stroke="#2f6d49" stroke-width="12" stroke-linecap="round" stroke-linejoin="round" opacity="0.96"/><path d="M 858.3 371.6 L 860.6 370.2 L 861.7 369.0 L 862.6 367.6" fill="none" stroke="#f5fbf5" stroke-width="4" stroke-linecap="round" stroke-linejoin="round" opacity="0.18"/><path d="M 862.6 367.6 L 866.6 360.9" fill="none" stroke="#2f6d49" stroke-width="12" stroke-linecap="round" stroke-linejoin="round" opacity="0.96"/><path d="M 862.6 367.6 L 866.6 360.9" fill="none" stroke="#f5fbf5" stroke-width="4" stroke-linecap="round" stroke-linejoin="round" opacity="0.18"/><path d="M 836.2 381.0 L 838.6 378.6 L 840.9 376.8 L 843.4 375.6 L 846.5 374.4 L 850.1 373.8 L 852.7 373.4 L 855.0 372.9 L 856.8 372.3 L 858.3 371.6" fill="none" stroke="#2f6d49" stroke-width="12" stroke-linecap="round" stroke-linejoin="round" opacity="0.96"/><path d="M 836.2 381.0 L 838.6 378.6 L 840.9 376.8 L 843.4 375.6 L 846.5 374.4 L 850.1 373.8 L 852.7 373.4 L 855.0 372.9 L 856.8 372.3 L 858.3 371.6" fill="none" stroke="#f5fbf5" stroke-width="4" stroke-linecap="round" stroke-linejoin="round" opacity="0.18"/><path d="M 902.8 366.6 L 898.1 365.0" fill="none" stroke="#2f6d49" stroke-width="12" stroke-linecap="round" stroke-linejoin="round" opacity="0.96"/><path d="M 902.8 366.6 L 898.1 365.0" fill="none" stroke="#f5fbf5" stroke-width="4" stroke-linecap="round" stroke-linejoin="round" opacity="0.18"/><path d="M 866.6 360.9 L 866.6 360.9" fill="none" stroke="#2f6d49" stroke-width="12" stroke-linecap="round" stroke-linejoin="round" opacity="0.96"/><path d="M 866.6 360.9 L 866.6 360.9" fill="none" stroke="#f5fbf5" stroke-width="4" stroke-linecap="round" stroke-linejoin="round" opacity="0.18"/><path d="M 866.6 360.9 L 870.7 353.5 L 872.1 350.6 L 873.1 347.5 L 873.8 344.3 L 874.1 341.1 L 874.2 338.3 L 874.3 335.3 L 874.3 333.0 L 874.6 330.8 L 874.9 328.9 L 875.6 325.9 L 876.5 322.6 L 877.4 319.3 L 878.1 317.5 L 878.3 315.8 L 877.7 310.7 L 876.2 305.9" fill="none" stroke="#2f6d49" stroke-width="12" stroke-linecap="round" stroke-linejoin="round" opacity="0.96"/><path d="M 866.6 360.9 L 870.7 353.5 L 872.1 350.6 L 873.1 347.5 L 873.8 344.3 L 874.1 341.1 L 874.2 338.3 L 874.3 335.3 L 874.3 333.0 L 874.6 330.8 L 874.9 328.9 L 875.6 325.9 L 876.5 322.6 L 877.4 319.3 L 878.1 317.5 L 878.3 315.8 L 877.7 310.7 L 876.2 305.9" fill="none" stroke="#f5fbf5" stroke-width="4" stroke-linecap="round" stroke-linejoin="round" opacity="0.18"/><path d="M 905.0 367.1 L 904.0 366.7 L 902.8 366.6" fill="none" stroke="#2f6d49" stroke-width="12" stroke-linecap="round" stroke-linejoin="round" opacity="0.96"/><path d="M 905.0 367.1 L 904.0 366.7 L 902.8 366.6" fill="none" stroke="#f5fbf5" stroke-width="4" stroke-linecap="round" stroke-linejoin="round" opacity="0.18"/><path d="M 827.7 418.1 L 827.7 418.9 L 827.9 420.4 L 828.5 421.3 L 829.2 422.3 L 829.8 423.0 L 830.6 423.6 L 831.4 424.1 L 832.6 424.5 L 834.7 425.0 L 836.7 425.3 L 838.3 425.7 L 840.1 426.3 L 842.3 427.3 L 845.9 429.0 L 849.2 431.2 L 852.1 433.9 L 854.7 436.9 L 857.8 441.3 L 860.2 446.1 L 861.8 451.3 L 862.4 456.7 L 862.2 462.0 L 861.3 467.1 L 861.2 470.5 L 862.1 473.7 L 863.0 475.2 L 864.2 476.5 L 865.6 477.4 L 867.1 478.1 L 869.9 478.3 L 871.7 478.3 L 873.0 478.1" fill="none" stroke="#2f6d49" stroke-width="12" stroke-linecap="round" stroke-linejoin="round" opacity="0.96"/><path d="M 827.7 418.1 L 827.7 418.9 L 827.9 420.4 L 828.5 421.3 L 829.2 422.3 L 829.8 423.0 L 830.6 423.6 L 831.4 424.1 L 832.6 424.5 L 834.7 425.0 L 836.7 425.3 L 838.3 425.7 L 840.1 426.3 L 842.3 427.3 L 845.9 429.0 L 849.2 431.2 L 852.1 433.9 L 854.7 436.9 L 857.8 441.3 L 860.2 446.1 L 861.8 451.3 L 862.4 456.7 L 862.2 462.0 L 861.3 467.1 L 861.2 470.5 L 862.1 473.7 L 863.0 475.2 L 864.2 476.5 L 865.6 477.4 L 867.1 478.1 L 869.9 478.3 L 871.7 478.3 L 873.0 478.1" fill="none" stroke="#f5fbf5" stroke-width="4" stroke-linecap="round" stroke-linejoin="round" opacity="0.18"/><circle cx="880.1" cy="402.7" r="18" fill="#f4ca3d" stroke="#ffffff" stroke-width="8"/><circle cx="880.1" cy="402.7" r="34" fill="none" stroke="#f4ca3d" stroke-width="4" opacity="0.45"/><rect x="92" y="110" width="126" height="34" rx="17" fill="#dceadf"/><text x="122" y="132" font-family="DM Sans, Arial, sans-serif" font-size="14" font-weight="700" fill="#2f6d49">TRAIL ACCESS</text><text x="92" y="208" font-family="Syne, Arial, sans-serif" font-size="58" font-weight="700" fill="#173423">Utah Park</text><text x="92" y="258" font-family="DM Sans, Arial, sans-serif" font-size="24" fill="#5c6a61">Nearby trail context, without leaving the park page.</text><text x="92" y="330" font-family="DM Sans, Arial, sans-serif" font-size="19" fill="#5f6d64">Use this as a utility slide in the gallery: real photos first, then a clean map card showing where trail access sits relative to the park.</text><circle cx="112" cy="434" r="8" fill="#f4ca3d"/><text x="132" y="440" font-family="DM Sans, Arial, sans-serif" font-size="18" font-weight="700" fill="#173423">Park location</text><rect x="104" y="472" width="36" height="10" rx="5" fill="#2f6d49"/><text x="156" y="482" font-family="DM Sans, Arial, sans-serif" font-size="18" font-weight="700" fill="#173423">Nearby trail geometry</text><text x="92" y="560" font-family="DM Sans, Arial, sans-serif" font-size="17" fill="#728076">Sample generated from local trail data already in the project.</text><text x="92" y="590" font-family="DM Sans, Arial, sans-serif" font-size="17" fill="#728076">Best used as an extra gallery card, not a replacement for photography.</text><rect x="642" y="118" width="154" height="34" rx="17" fill="#ffffff" opacity="0.92"/><text x="666" y="140" font-family="DM Sans, Arial, sans-serif" font-size="14" font-weight="700" fill="#2f6d49">MAP SNAPSHOT</text><rect x="782" y="650" width="286" height="42" rx="21" fill="#ffffff" opacity="0.94"/><text x="812" y="676" font-family="DM Sans, Arial, sans-serif" font-size="18" font-weight="700" fill="#173423">Yellow dot = park</text></svg>